<mxfile host="app.diagrams.net" agent="Mozilla/5.0 (Windows NT 10.0; Win64; x64) AppleWebKit/537.36 (KHTML, like Gecko) Chrome/129.0.0.0 Safari/537.36" version="24.8.0">
  <diagram id="QBUHHT3jVOCJc5poJwKL" name="node_diagram">
    <mxGraphModel dx="1640" dy="1138" grid="1" gridSize="10" guides="1" tooltips="1" connect="1" arrows="1" fold="1" page="1" pageScale="1" pageWidth="3000" pageHeight="1500" math="0" shadow="0">
      <root>
        <mxCell id="0" />
        <mxCell id="1" parent="0" />
        <mxCell id="3qK1JiZfvpJ62H7woJvW-8" value="ROS Teach Pendant Programs (ROS_GRIP)" style="rounded=0;whiteSpace=wrap;html=1;fillColor=#ffe6cc;strokeColor=#d79b00;fontColor=#0d0d0d;horizontal=1;verticalAlign=top;" parent="1" vertex="1">
          <mxGeometry x="290" y="120" width="160" height="120" as="geometry" />
        </mxCell>
        <mxCell id="3qK1JiZfvpJ62H7woJvW-1" style="edgeStyle=orthogonalEdgeStyle;rounded=0;orthogonalLoop=1;jettySize=auto;html=1;exitX=1;exitY=0.5;exitDx=0;exitDy=0;entryX=0;entryY=0.5;entryDx=0;entryDy=0;fontColor=#0d0d0d;" parent="1" source="3qK1JiZfvpJ62H7woJvW-2" target="3qK1JiZfvpJ62H7woJvW-8" edge="1">
          <mxGeometry relative="1" as="geometry" />
        </mxCell>
        <mxCell id="3qK1JiZfvpJ62H7woJvW-2" value="Fanuc Robot" style="shape=parallelogram;perimeter=parallelogramPerimeter;whiteSpace=wrap;html=1;fixedSize=1;fillColor=#fff2cc;strokeColor=#d6b656;" parent="1" vertex="1">
          <mxGeometry x="80" y="160" width="160" height="40" as="geometry" />
        </mxCell>
        <mxCell id="3qK1JiZfvpJ62H7woJvW-21" style="edgeStyle=orthogonalEdgeStyle;rounded=0;orthogonalLoop=1;jettySize=auto;html=1;exitX=1;exitY=0.25;exitDx=0;exitDy=0;entryX=0;entryY=0.5;entryDx=0;entryDy=0;" parent="1" source="3qK1JiZfvpJ62H7woJvW-5" target="3qK1JiZfvpJ62H7woJvW-9" edge="1">
          <mxGeometry relative="1" as="geometry" />
        </mxCell>
        <mxCell id="3qK1JiZfvpJ62H7woJvW-23" style="edgeStyle=orthogonalEdgeStyle;rounded=0;orthogonalLoop=1;jettySize=auto;html=1;exitX=1;exitY=0.75;exitDx=0;exitDy=0;entryX=0;entryY=0.5;entryDx=0;entryDy=0;" parent="1" source="3qK1JiZfvpJ62H7woJvW-5" target="3qK1JiZfvpJ62H7woJvW-10" edge="1">
          <mxGeometry relative="1" as="geometry" />
        </mxCell>
        <mxCell id="3qK1JiZfvpJ62H7woJvW-5" value="Fanuc Hardware Interface" style="rounded=1;whiteSpace=wrap;html=1;fillColor=#e1d5e7;strokeColor=#9673a6;fontColor=#0d0d0d;" parent="1" vertex="1">
          <mxGeometry x="640" y="160" width="120" height="40" as="geometry" />
        </mxCell>
        <mxCell id="3qK1JiZfvpJ62H7woJvW-6" style="edgeStyle=orthogonalEdgeStyle;rounded=0;orthogonalLoop=1;jettySize=auto;html=1;exitX=1;exitY=0.25;exitDx=0;exitDy=0;entryX=0;entryY=0.5;entryDx=0;entryDy=0;startArrow=none;startFill=0;fontColor=#0d0d0d;" parent="1" source="3qK1JiZfvpJ62H7woJvW-19" target="3qK1JiZfvpJ62H7woJvW-5" edge="1">
          <mxGeometry relative="1" as="geometry">
            <Array as="points">
              <mxPoint x="500" y="170" />
              <mxPoint x="500" y="180" />
            </Array>
            <mxPoint x="450.0000000000001" y="170" as="sourcePoint" />
            <mxPoint x="650.0000000000001" y="180" as="targetPoint" />
          </mxGeometry>
        </mxCell>
        <mxCell id="3qK1JiZfvpJ62H7woJvW-7" value="SimpleMessage Protocol&lt;br&gt;(State Port)" style="edgeLabel;html=1;align=center;verticalAlign=middle;resizable=0;points=[];fontColor=#0d0d0d;labelBackgroundColor=none;" parent="3qK1JiZfvpJ62H7woJvW-6" vertex="1" connectable="0">
          <mxGeometry x="0.25" y="-1" relative="1" as="geometry">
            <mxPoint x="-1" y="-16" as="offset" />
          </mxGeometry>
        </mxCell>
        <mxCell id="3qK1JiZfvpJ62H7woJvW-27" value="SimpleMessage Protocol&lt;br&gt;(Motion Port)" style="edgeLabel;html=1;align=center;verticalAlign=middle;resizable=0;points=[];fontColor=#0d0d0d;labelBackgroundColor=none;" parent="3qK1JiZfvpJ62H7woJvW-6" vertex="1" connectable="0">
          <mxGeometry x="0.25" y="-1" relative="1" as="geometry">
            <mxPoint x="-37" y="24" as="offset" />
          </mxGeometry>
        </mxCell>
        <mxCell id="3qK1JiZfvpJ62H7woJvW-9" value="position state interfaces" style="rounded=0;whiteSpace=wrap;html=1;fillColor=#f8cecc;strokeColor=#b85450;fontColor=#0d0d0d;" parent="1" vertex="1">
          <mxGeometry x="800" y="120" width="120" height="40" as="geometry" />
        </mxCell>
        <mxCell id="3qK1JiZfvpJ62H7woJvW-10" value="position command interfaces" style="rounded=0;whiteSpace=wrap;html=1;fillColor=#f8cecc;strokeColor=#b85450;fontColor=#0d0d0d;" parent="1" vertex="1">
          <mxGeometry x="800" y="270" width="120" height="40" as="geometry" />
        </mxCell>
        <mxCell id="3qK1JiZfvpJ62H7woJvW-11" style="edgeStyle=orthogonalEdgeStyle;rounded=0;orthogonalLoop=1;jettySize=auto;html=1;exitX=1;exitY=0.5;exitDx=0;exitDy=0;entryX=0;entryY=0.5;entryDx=0;entryDy=0;fontColor=#0d0d0d;" parent="1" source="3qK1JiZfvpJ62H7woJvW-13" target="3qK1JiZfvpJ62H7woJvW-17" edge="1">
          <mxGeometry relative="1" as="geometry" />
        </mxCell>
        <mxCell id="3qK1JiZfvpJ62H7woJvW-12" style="edgeStyle=orthogonalEdgeStyle;rounded=0;orthogonalLoop=1;jettySize=auto;html=1;exitX=0;exitY=0.5;exitDx=0;exitDy=0;fontColor=#0d0d0d;" parent="1" source="3qK1JiZfvpJ62H7woJvW-13" target="3qK1JiZfvpJ62H7woJvW-9" edge="1">
          <mxGeometry relative="1" as="geometry" />
        </mxCell>
        <mxCell id="3qK1JiZfvpJ62H7woJvW-13" value="Joint State Broadcaster" style="rounded=1;whiteSpace=wrap;html=1;fillColor=#e1d5e7;strokeColor=#9673a6;fontColor=#0d0d0d;" parent="1" vertex="1">
          <mxGeometry x="960" y="120" width="160" height="40" as="geometry" />
        </mxCell>
        <mxCell id="3qK1JiZfvpJ62H7woJvW-14" style="edgeStyle=orthogonalEdgeStyle;rounded=0;orthogonalLoop=1;jettySize=auto;html=1;exitX=1;exitY=0.5;exitDx=0;exitDy=0;entryX=0;entryY=0.5;entryDx=0;entryDy=0;fontColor=#0d0d0d;" parent="1" source="3qK1JiZfvpJ62H7woJvW-16" target="3qK1JiZfvpJ62H7woJvW-18" edge="1">
          <mxGeometry relative="1" as="geometry" />
        </mxCell>
        <mxCell id="3qK1JiZfvpJ62H7woJvW-26" style="edgeStyle=orthogonalEdgeStyle;rounded=0;orthogonalLoop=1;jettySize=auto;html=1;exitX=0;exitY=0.25;exitDx=0;exitDy=0;entryX=1;entryY=0.75;entryDx=0;entryDy=0;" parent="1" source="3qK1JiZfvpJ62H7woJvW-16" target="3qK1JiZfvpJ62H7woJvW-19" edge="1">
          <mxGeometry relative="1" as="geometry">
            <Array as="points">
              <mxPoint x="600" y="210" />
              <mxPoint x="600" y="190" />
            </Array>
          </mxGeometry>
        </mxCell>
        <mxCell id="3qK1JiZfvpJ62H7woJvW-34" style="edgeStyle=orthogonalEdgeStyle;rounded=0;orthogonalLoop=1;jettySize=auto;html=1;exitX=0;exitY=0.75;exitDx=0;exitDy=0;entryX=1;entryY=0.25;entryDx=0;entryDy=0;" parent="1" source="3qK1JiZfvpJ62H7woJvW-16" target="3qK1JiZfvpJ62H7woJvW-10" edge="1">
          <mxGeometry relative="1" as="geometry" />
        </mxCell>
        <mxCell id="3qK1JiZfvpJ62H7woJvW-16" value="Fanuc Joint Trajectory Controller" style="rounded=1;whiteSpace=wrap;html=1;fillColor=#e1d5e7;strokeColor=#9673a6;fontColor=#0d0d0d;" parent="1" vertex="1">
          <mxGeometry x="960" y="200" width="160" height="40" as="geometry" />
        </mxCell>
        <mxCell id="3qK1JiZfvpJ62H7woJvW-17" value="/fanuc/joint_states" style="rounded=1;whiteSpace=wrap;html=1;fillColor=#dae8fc;strokeColor=#6c8ebf;fontColor=#0d0d0d;" parent="1" vertex="1">
          <mxGeometry x="1160" y="120" width="200" height="40" as="geometry" />
        </mxCell>
        <mxCell id="3qK1JiZfvpJ62H7woJvW-18" value="/fanuc/follow_joint_trajectory" style="rounded=1;whiteSpace=wrap;html=1;fillColor=#ffe6cc;strokeColor=#d79b00;" parent="1" vertex="1">
          <mxGeometry x="1160" y="200" width="200" height="40" as="geometry" />
        </mxCell>
        <mxCell id="3qK1JiZfvpJ62H7woJvW-19" value="ROS" style="rounded=0;whiteSpace=wrap;html=1;fillColor=#ffe6cc;strokeColor=#d79b00;" parent="1" vertex="1">
          <mxGeometry x="290" y="160" width="160" height="40" as="geometry" />
        </mxCell>
        <mxCell id="3qK1JiZfvpJ62H7woJvW-20" value="GRIP_CON" style="rounded=0;whiteSpace=wrap;html=1;fillColor=#ffe6cc;strokeColor=#d79b00;" parent="1" vertex="1">
          <mxGeometry x="290" y="200" width="160" height="40" as="geometry" />
        </mxCell>
        <mxCell id="3qK1JiZfvpJ62H7woJvW-29" style="edgeStyle=orthogonalEdgeStyle;rounded=0;orthogonalLoop=1;jettySize=auto;html=1;exitX=0;exitY=0.75;exitDx=0;exitDy=0;entryX=1;entryY=0.5;entryDx=0;entryDy=0;" parent="1" source="3qK1JiZfvpJ62H7woJvW-28" target="3qK1JiZfvpJ62H7woJvW-20" edge="1">
          <mxGeometry relative="1" as="geometry">
            <mxPoint x="959.9999999999998" y="400" as="sourcePoint" />
            <mxPoint x="450.0000000000002" y="230" as="targetPoint" />
            <Array as="points">
              <mxPoint x="480" y="390" />
              <mxPoint x="480" y="220" />
            </Array>
          </mxGeometry>
        </mxCell>
        <mxCell id="3qK1JiZfvpJ62H7woJvW-30" value="Binary Socket Communication" style="edgeLabel;html=1;align=center;verticalAlign=middle;resizable=0;points=[];labelBackgroundColor=none;" parent="3qK1JiZfvpJ62H7woJvW-29" vertex="1" connectable="0">
          <mxGeometry x="-0.0371" y="2" relative="1" as="geometry">
            <mxPoint x="18" y="-12" as="offset" />
          </mxGeometry>
        </mxCell>
        <mxCell id="3qK1JiZfvpJ62H7woJvW-32" style="edgeStyle=orthogonalEdgeStyle;rounded=0;orthogonalLoop=1;jettySize=auto;html=1;exitX=1;exitY=0.5;exitDx=0;exitDy=0;entryX=0;entryY=0.5;entryDx=0;entryDy=0;" parent="1" source="3qK1JiZfvpJ62H7woJvW-28" target="3qK1JiZfvpJ62H7woJvW-31" edge="1">
          <mxGeometry relative="1" as="geometry" />
        </mxCell>
        <mxCell id="3qK1JiZfvpJ62H7woJvW-35" style="edgeStyle=orthogonalEdgeStyle;rounded=0;orthogonalLoop=1;jettySize=auto;html=1;exitX=0;exitY=0.25;exitDx=0;exitDy=0;entryX=1;entryY=0.75;entryDx=0;entryDy=0;" parent="1" source="3qK1JiZfvpJ62H7woJvW-28" target="3qK1JiZfvpJ62H7woJvW-10" edge="1">
          <mxGeometry relative="1" as="geometry" />
        </mxCell>
        <mxCell id="3qK1JiZfvpJ62H7woJvW-28" value="Fanuc Gripper Controller" style="rounded=1;whiteSpace=wrap;html=1;fillColor=#e1d5e7;strokeColor=#9673a6;fontColor=#0d0d0d;" parent="1" vertex="1">
          <mxGeometry x="960" y="360" width="160" height="40" as="geometry" />
        </mxCell>
        <mxCell id="3qK1JiZfvpJ62H7woJvW-31" value="/fanuc/actuate_gripper" style="rounded=1;whiteSpace=wrap;html=1;fillColor=#d5e8d4;strokeColor=#82b366;" parent="1" vertex="1">
          <mxGeometry x="1160" y="360" width="200" height="40" as="geometry" />
        </mxCell>
        <mxCell id="3qK1JiZfvpJ62H7woJvW-36" value="MotoROS" style="rounded=0;whiteSpace=wrap;html=1;fillColor=#ffe6cc;strokeColor=#d79b00;fontColor=#0d0d0d;horizontal=1;verticalAlign=middle;" parent="1" vertex="1">
          <mxGeometry x="290" y="520" width="160" height="40" as="geometry" />
        </mxCell>
        <mxCell id="3qK1JiZfvpJ62H7woJvW-37" style="edgeStyle=orthogonalEdgeStyle;rounded=0;orthogonalLoop=1;jettySize=auto;html=1;exitX=1;exitY=0.5;exitDx=0;exitDy=0;entryX=0;entryY=0.5;entryDx=0;entryDy=0;fontColor=#0d0d0d;" parent="1" source="3qK1JiZfvpJ62H7woJvW-38" target="3qK1JiZfvpJ62H7woJvW-36" edge="1">
          <mxGeometry relative="1" as="geometry" />
        </mxCell>
        <mxCell id="3qK1JiZfvpJ62H7woJvW-38" value="Motoman Robot" style="shape=parallelogram;perimeter=parallelogramPerimeter;whiteSpace=wrap;html=1;fixedSize=1;fillColor=#fff2cc;strokeColor=#d6b656;" parent="1" vertex="1">
          <mxGeometry x="80" y="520" width="160" height="40" as="geometry" />
        </mxCell>
        <mxCell id="3qK1JiZfvpJ62H7woJvW-39" style="edgeStyle=orthogonalEdgeStyle;rounded=0;orthogonalLoop=1;jettySize=auto;html=1;exitX=1;exitY=0.25;exitDx=0;exitDy=0;entryX=0;entryY=0.5;entryDx=0;entryDy=0;" parent="1" source="3qK1JiZfvpJ62H7woJvW-41" target="3qK1JiZfvpJ62H7woJvW-45" edge="1">
          <mxGeometry relative="1" as="geometry" />
        </mxCell>
        <mxCell id="3qK1JiZfvpJ62H7woJvW-40" style="edgeStyle=orthogonalEdgeStyle;rounded=0;orthogonalLoop=1;jettySize=auto;html=1;exitX=1;exitY=0.75;exitDx=0;exitDy=0;entryX=0;entryY=0.5;entryDx=0;entryDy=0;" parent="1" source="3qK1JiZfvpJ62H7woJvW-41" target="3qK1JiZfvpJ62H7woJvW-46" edge="1">
          <mxGeometry relative="1" as="geometry" />
        </mxCell>
        <mxCell id="3qK1JiZfvpJ62H7woJvW-41" value="Motoman Hardware Interface" style="rounded=1;whiteSpace=wrap;html=1;fillColor=#e1d5e7;strokeColor=#9673a6;fontColor=#0d0d0d;" parent="1" vertex="1">
          <mxGeometry x="640" y="480" width="120" height="40" as="geometry" />
        </mxCell>
        <mxCell id="3qK1JiZfvpJ62H7woJvW-42" style="edgeStyle=orthogonalEdgeStyle;rounded=0;orthogonalLoop=1;jettySize=auto;html=1;exitX=1;exitY=0.25;exitDx=0;exitDy=0;entryX=0;entryY=0.5;entryDx=0;entryDy=0;startArrow=none;startFill=0;fontColor=#0d0d0d;" parent="1" target="3qK1JiZfvpJ62H7woJvW-41" edge="1">
          <mxGeometry relative="1" as="geometry">
            <Array as="points">
              <mxPoint x="620" y="530" />
              <mxPoint x="620" y="500" />
            </Array>
            <mxPoint x="450" y="530" as="sourcePoint" />
            <mxPoint x="650.0000000000001" y="540" as="targetPoint" />
          </mxGeometry>
        </mxCell>
        <mxCell id="3qK1JiZfvpJ62H7woJvW-43" value="SimpleMessage Protocol&lt;br&gt;(State Port)" style="edgeLabel;html=1;align=center;verticalAlign=middle;resizable=0;points=[];fontColor=#0d0d0d;labelBackgroundColor=none;" parent="3qK1JiZfvpJ62H7woJvW-42" vertex="1" connectable="0">
          <mxGeometry x="0.25" y="-1" relative="1" as="geometry">
            <mxPoint x="-37" y="-16" as="offset" />
          </mxGeometry>
        </mxCell>
        <mxCell id="3qK1JiZfvpJ62H7woJvW-44" value="SimpleMessage Protocol&lt;br&gt;(Motion Port)" style="edgeLabel;html=1;align=center;verticalAlign=middle;resizable=0;points=[];fontColor=#0d0d0d;labelBackgroundColor=none;" parent="3qK1JiZfvpJ62H7woJvW-42" vertex="1" connectable="0">
          <mxGeometry x="0.25" y="-1" relative="1" as="geometry">
            <mxPoint x="52" y="24" as="offset" />
          </mxGeometry>
        </mxCell>
        <mxCell id="3qK1JiZfvpJ62H7woJvW-45" value="state interfaces" style="rounded=0;whiteSpace=wrap;html=1;fillColor=#f8cecc;strokeColor=#b85450;fontColor=#0d0d0d;" parent="1" vertex="1">
          <mxGeometry x="800" y="480" width="120" height="40" as="geometry" />
        </mxCell>
        <mxCell id="3qK1JiZfvpJ62H7woJvW-46" value="position command interface" style="rounded=0;whiteSpace=wrap;html=1;fillColor=#f8cecc;strokeColor=#b85450;fontColor=#0d0d0d;" parent="1" vertex="1">
          <mxGeometry x="800" y="630" width="120" height="40" as="geometry" />
        </mxCell>
        <mxCell id="3qK1JiZfvpJ62H7woJvW-47" style="edgeStyle=orthogonalEdgeStyle;rounded=0;orthogonalLoop=1;jettySize=auto;html=1;exitX=1;exitY=0.5;exitDx=0;exitDy=0;entryX=0;entryY=0.5;entryDx=0;entryDy=0;fontColor=#0d0d0d;" parent="1" source="3qK1JiZfvpJ62H7woJvW-49" target="3qK1JiZfvpJ62H7woJvW-54" edge="1">
          <mxGeometry relative="1" as="geometry" />
        </mxCell>
        <mxCell id="3qK1JiZfvpJ62H7woJvW-48" style="edgeStyle=orthogonalEdgeStyle;rounded=0;orthogonalLoop=1;jettySize=auto;html=1;exitX=0;exitY=0.5;exitDx=0;exitDy=0;fontColor=#0d0d0d;" parent="1" source="3qK1JiZfvpJ62H7woJvW-49" target="3qK1JiZfvpJ62H7woJvW-45" edge="1">
          <mxGeometry relative="1" as="geometry" />
        </mxCell>
        <mxCell id="3qK1JiZfvpJ62H7woJvW-49" value="Joint State Broadcaster" style="rounded=1;whiteSpace=wrap;html=1;fillColor=#e1d5e7;strokeColor=#9673a6;fontColor=#0d0d0d;" parent="1" vertex="1">
          <mxGeometry x="960" y="480" width="160" height="40" as="geometry" />
        </mxCell>
        <mxCell id="3qK1JiZfvpJ62H7woJvW-50" style="edgeStyle=orthogonalEdgeStyle;rounded=0;orthogonalLoop=1;jettySize=auto;html=1;exitX=1;exitY=0.5;exitDx=0;exitDy=0;entryX=0;entryY=0.5;entryDx=0;entryDy=0;fontColor=#0d0d0d;" parent="1" source="3qK1JiZfvpJ62H7woJvW-53" target="3qK1JiZfvpJ62H7woJvW-55" edge="1">
          <mxGeometry relative="1" as="geometry" />
        </mxCell>
        <mxCell id="3qK1JiZfvpJ62H7woJvW-51" style="edgeStyle=orthogonalEdgeStyle;rounded=0;orthogonalLoop=1;jettySize=auto;html=1;exitX=0;exitY=0.25;exitDx=0;exitDy=0;entryX=1;entryY=0.5;entryDx=0;entryDy=0;" parent="1" source="3qK1JiZfvpJ62H7woJvW-53" target="3qK1JiZfvpJ62H7woJvW-36" edge="1">
          <mxGeometry relative="1" as="geometry">
            <Array as="points">
              <mxPoint x="720" y="570" />
              <mxPoint x="720" y="540" />
            </Array>
            <mxPoint x="450" y="550" as="targetPoint" />
          </mxGeometry>
        </mxCell>
        <mxCell id="3qK1JiZfvpJ62H7woJvW-52" style="edgeStyle=orthogonalEdgeStyle;rounded=0;orthogonalLoop=1;jettySize=auto;html=1;exitX=0;exitY=0.75;exitDx=0;exitDy=0;entryX=1;entryY=0.25;entryDx=0;entryDy=0;" parent="1" source="3qK1JiZfvpJ62H7woJvW-53" target="3qK1JiZfvpJ62H7woJvW-46" edge="1">
          <mxGeometry relative="1" as="geometry" />
        </mxCell>
        <mxCell id="3qK1JiZfvpJ62H7woJvW-53" value="Motoman Joint Trajectory Controller" style="rounded=1;whiteSpace=wrap;html=1;fillColor=#e1d5e7;strokeColor=#9673a6;fontColor=#0d0d0d;" parent="1" vertex="1">
          <mxGeometry x="960" y="560" width="160" height="40" as="geometry" />
        </mxCell>
        <mxCell id="3qK1JiZfvpJ62H7woJvW-54" value="/motoman/joint_states" style="rounded=1;whiteSpace=wrap;html=1;fillColor=#dae8fc;strokeColor=#6c8ebf;fontColor=#0d0d0d;" parent="1" vertex="1">
          <mxGeometry x="1160" y="480" width="200" height="40" as="geometry" />
        </mxCell>
        <mxCell id="3qK1JiZfvpJ62H7woJvW-55" value="/motoman/follow_joint_trajectory" style="rounded=1;whiteSpace=wrap;html=1;fillColor=#ffe6cc;strokeColor=#d79b00;" parent="1" vertex="1">
          <mxGeometry x="1160" y="560" width="200" height="40" as="geometry" />
        </mxCell>
        <mxCell id="3qK1JiZfvpJ62H7woJvW-60" style="edgeStyle=orthogonalEdgeStyle;rounded=0;orthogonalLoop=1;jettySize=auto;html=1;exitX=1;exitY=0.5;exitDx=0;exitDy=0;entryX=0;entryY=0.5;entryDx=0;entryDy=0;" parent="1" source="3qK1JiZfvpJ62H7woJvW-62" target="3qK1JiZfvpJ62H7woJvW-63" edge="1">
          <mxGeometry relative="1" as="geometry" />
        </mxCell>
        <mxCell id="3qK1JiZfvpJ62H7woJvW-61" style="edgeStyle=orthogonalEdgeStyle;rounded=0;orthogonalLoop=1;jettySize=auto;html=1;exitX=0;exitY=0.25;exitDx=0;exitDy=0;entryX=1;entryY=0.75;entryDx=0;entryDy=0;" parent="1" source="3qK1JiZfvpJ62H7woJvW-62" target="3qK1JiZfvpJ62H7woJvW-46" edge="1">
          <mxGeometry relative="1" as="geometry" />
        </mxCell>
        <mxCell id="3qK1JiZfvpJ62H7woJvW-64" style="edgeStyle=orthogonalEdgeStyle;rounded=0;orthogonalLoop=1;jettySize=auto;html=1;exitX=0;exitY=0.75;exitDx=0;exitDy=0;entryX=1;entryY=0.75;entryDx=0;entryDy=0;" parent="1" source="3qK1JiZfvpJ62H7woJvW-62" target="3qK1JiZfvpJ62H7woJvW-36" edge="1">
          <mxGeometry relative="1" as="geometry">
            <Array as="points">
              <mxPoint x="720" y="750" />
              <mxPoint x="720" y="640" />
              <mxPoint x="470" y="640" />
              <mxPoint x="470" y="550" />
            </Array>
          </mxGeometry>
        </mxCell>
        <mxCell id="3qK1JiZfvpJ62H7woJvW-66" value="SimpleMessage Protocol&lt;div&gt;(I/O Port)&lt;/div&gt;" style="edgeLabel;html=1;align=center;verticalAlign=middle;resizable=0;points=[];labelBackgroundColor=none;" parent="3qK1JiZfvpJ62H7woJvW-64" vertex="1" connectable="0">
          <mxGeometry x="0.0373" y="1" relative="1" as="geometry">
            <mxPoint x="-52" y="19" as="offset" />
          </mxGeometry>
        </mxCell>
        <mxCell id="3qK1JiZfvpJ62H7woJvW-62" value="Motoman Gripper Controller" style="rounded=1;whiteSpace=wrap;html=1;fillColor=#e1d5e7;strokeColor=#9673a6;fontColor=#0d0d0d;" parent="1" vertex="1">
          <mxGeometry x="960" y="720" width="160" height="40" as="geometry" />
        </mxCell>
        <mxCell id="3qK1JiZfvpJ62H7woJvW-63" value="/motman/actuate_gripper" style="rounded=1;whiteSpace=wrap;html=1;fillColor=#d5e8d4;strokeColor=#82b366;" parent="1" vertex="1">
          <mxGeometry x="1160" y="720" width="200" height="40" as="geometry" />
        </mxCell>
        <mxCell id="mMcJlgv2Vi7-TSQJx2wT-1" value="&lt;span style=&quot;border-color: var(--border-color);&quot;&gt;/fanuc/pick_from_slot&lt;/span&gt;&lt;div style=&quot;border-color: var(--border-color);&quot;&gt;Pick.srv&lt;/div&gt;" style="rounded=1;whiteSpace=wrap;html=1;fillColor=#d5e8d4;strokeColor=#82b366;fontColor=#0d0d0d;" parent="1" vertex="1">
          <mxGeometry x="1760" y="260" width="200" height="40" as="geometry" />
        </mxCell>
        <mxCell id="mMcJlgv2Vi7-TSQJx2wT-2" value="/fanuc/place_in_slot&lt;div style=&quot;border-color: var(--border-color);&quot;&gt;Place.srv&lt;/div&gt;" style="rounded=1;whiteSpace=wrap;html=1;fillColor=#d5e8d4;strokeColor=#82b366;fontColor=#0d0d0d;" parent="1" vertex="1">
          <mxGeometry x="1760" y="320" width="200" height="40" as="geometry" />
        </mxCell>
        <mxCell id="mMcJlgv2Vi7-TSQJx2wT-8" style="edgeStyle=orthogonalEdgeStyle;rounded=0;orthogonalLoop=1;jettySize=auto;html=1;exitX=0;exitY=0.25;exitDx=0;exitDy=0;entryX=1;entryY=0.5;entryDx=0;entryDy=0;" parent="1" source="mMcJlgv2Vi7-TSQJx2wT-3" target="3qK1JiZfvpJ62H7woJvW-17" edge="1">
          <mxGeometry relative="1" as="geometry">
            <Array as="points">
              <mxPoint x="1460" y="170" />
              <mxPoint x="1460" y="140" />
            </Array>
          </mxGeometry>
        </mxCell>
        <mxCell id="mMcJlgv2Vi7-TSQJx2wT-9" style="edgeStyle=orthogonalEdgeStyle;rounded=0;orthogonalLoop=1;jettySize=auto;html=1;exitX=0;exitY=0.75;exitDx=0;exitDy=0;entryX=1;entryY=0.5;entryDx=0;entryDy=0;" parent="1" source="mMcJlgv2Vi7-TSQJx2wT-3" target="3qK1JiZfvpJ62H7woJvW-18" edge="1">
          <mxGeometry relative="1" as="geometry">
            <Array as="points">
              <mxPoint x="1400" y="190" />
              <mxPoint x="1400" y="220" />
            </Array>
          </mxGeometry>
        </mxCell>
        <mxCell id="mMcJlgv2Vi7-TSQJx2wT-3" value="Fanuc Move Group Node" style="rounded=1;whiteSpace=wrap;html=1;fillColor=#e1d5e7;strokeColor=#9673a6;fontColor=#0d0d0d;verticalAlign=middle;" parent="1" vertex="1">
          <mxGeometry x="1480" y="160" width="200" height="40" as="geometry" />
        </mxCell>
        <mxCell id="mMcJlgv2Vi7-TSQJx2wT-4" value="" style="group" parent="1" vertex="1" connectable="0">
          <mxGeometry x="1480" y="240" width="200" height="80" as="geometry" />
        </mxCell>
        <mxCell id="mMcJlgv2Vi7-TSQJx2wT-5" value="Fanuc Robot Commander" style="rounded=1;whiteSpace=wrap;html=1;fillColor=#e1d5e7;strokeColor=#9673a6;fontColor=#0d0d0d;verticalAlign=top;" parent="mMcJlgv2Vi7-TSQJx2wT-4" vertex="1">
          <mxGeometry width="200" height="80" as="geometry" />
        </mxCell>
        <mxCell id="mMcJlgv2Vi7-TSQJx2wT-6" value="MoveGroupInterface" style="rounded=0;whiteSpace=wrap;html=1;fillColor=#fff2cc;strokeColor=#d6b656;fontColor=#0d0d0d;" parent="mMcJlgv2Vi7-TSQJx2wT-4" vertex="1">
          <mxGeometry x="30" y="30" width="140" height="40" as="geometry" />
        </mxCell>
        <mxCell id="mMcJlgv2Vi7-TSQJx2wT-7" value="/fanuc/move_to_named_pose&lt;div&gt;MoveToNamedPose.srv&lt;/div&gt;" style="rounded=1;whiteSpace=wrap;html=1;fillColor=#d5e8d4;strokeColor=#82b366;fontColor=#0d0d0d;" parent="1" vertex="1">
          <mxGeometry x="1760" y="200" width="200" height="40" as="geometry" />
        </mxCell>
        <mxCell id="mMcJlgv2Vi7-TSQJx2wT-10" style="edgeStyle=orthogonalEdgeStyle;rounded=0;orthogonalLoop=1;jettySize=auto;html=1;exitX=0.5;exitY=0;exitDx=0;exitDy=0;entryX=0.5;entryY=1;entryDx=0;entryDy=0;" parent="1" source="mMcJlgv2Vi7-TSQJx2wT-5" target="mMcJlgv2Vi7-TSQJx2wT-3" edge="1">
          <mxGeometry relative="1" as="geometry" />
        </mxCell>
        <mxCell id="mMcJlgv2Vi7-TSQJx2wT-11" style="edgeStyle=orthogonalEdgeStyle;rounded=0;orthogonalLoop=1;jettySize=auto;html=1;exitX=1;exitY=0.25;exitDx=0;exitDy=0;entryX=0;entryY=0.5;entryDx=0;entryDy=0;" parent="1" source="mMcJlgv2Vi7-TSQJx2wT-5" target="mMcJlgv2Vi7-TSQJx2wT-7" edge="1">
          <mxGeometry relative="1" as="geometry" />
        </mxCell>
        <mxCell id="mMcJlgv2Vi7-TSQJx2wT-12" style="edgeStyle=orthogonalEdgeStyle;rounded=0;orthogonalLoop=1;jettySize=auto;html=1;exitX=1;exitY=0.5;exitDx=0;exitDy=0;entryX=0;entryY=0.5;entryDx=0;entryDy=0;" parent="1" source="mMcJlgv2Vi7-TSQJx2wT-5" target="mMcJlgv2Vi7-TSQJx2wT-1" edge="1">
          <mxGeometry relative="1" as="geometry" />
        </mxCell>
        <mxCell id="mMcJlgv2Vi7-TSQJx2wT-13" style="edgeStyle=orthogonalEdgeStyle;rounded=0;orthogonalLoop=1;jettySize=auto;html=1;exitX=1;exitY=0.75;exitDx=0;exitDy=0;entryX=0;entryY=0.5;entryDx=0;entryDy=0;" parent="1" source="mMcJlgv2Vi7-TSQJx2wT-5" target="mMcJlgv2Vi7-TSQJx2wT-2" edge="1">
          <mxGeometry relative="1" as="geometry" />
        </mxCell>
        <mxCell id="mMcJlgv2Vi7-TSQJx2wT-14" style="edgeStyle=orthogonalEdgeStyle;rounded=0;orthogonalLoop=1;jettySize=auto;html=1;exitX=0;exitY=0.5;exitDx=0;exitDy=0;entryX=1;entryY=0.5;entryDx=0;entryDy=0;" parent="1" source="mMcJlgv2Vi7-TSQJx2wT-5" target="3qK1JiZfvpJ62H7woJvW-31" edge="1">
          <mxGeometry relative="1" as="geometry">
            <Array as="points">
              <mxPoint x="1440" y="280" />
              <mxPoint x="1440" y="380" />
            </Array>
          </mxGeometry>
        </mxCell>
        <mxCell id="mMcJlgv2Vi7-TSQJx2wT-15" value="&lt;span style=&quot;border-color: var(--border-color);&quot;&gt;/motoman/pick_from_slot&lt;/span&gt;&lt;div style=&quot;border-color: var(--border-color);&quot;&gt;Pick.srv&lt;/div&gt;" style="rounded=1;whiteSpace=wrap;html=1;fillColor=#d5e8d4;strokeColor=#82b366;fontColor=#0d0d0d;" parent="1" vertex="1">
          <mxGeometry x="1760" y="580" width="200" height="40" as="geometry" />
        </mxCell>
        <mxCell id="mMcJlgv2Vi7-TSQJx2wT-16" value="/motoman/place_in_slot&lt;div style=&quot;border-color: var(--border-color);&quot;&gt;Place.srv&lt;/div&gt;" style="rounded=1;whiteSpace=wrap;html=1;fillColor=#d5e8d4;strokeColor=#82b366;fontColor=#0d0d0d;" parent="1" vertex="1">
          <mxGeometry x="1760" y="640" width="200" height="40" as="geometry" />
        </mxCell>
        <mxCell id="mMcJlgv2Vi7-TSQJx2wT-26" style="edgeStyle=orthogonalEdgeStyle;rounded=0;orthogonalLoop=1;jettySize=auto;html=1;exitX=0;exitY=0.25;exitDx=0;exitDy=0;entryX=1;entryY=0.5;entryDx=0;entryDy=0;" parent="1" source="mMcJlgv2Vi7-TSQJx2wT-17" target="3qK1JiZfvpJ62H7woJvW-54" edge="1">
          <mxGeometry relative="1" as="geometry" />
        </mxCell>
        <mxCell id="mMcJlgv2Vi7-TSQJx2wT-27" style="edgeStyle=orthogonalEdgeStyle;rounded=0;orthogonalLoop=1;jettySize=auto;html=1;exitX=0;exitY=0.75;exitDx=0;exitDy=0;entryX=1;entryY=0.5;entryDx=0;entryDy=0;" parent="1" source="mMcJlgv2Vi7-TSQJx2wT-17" target="3qK1JiZfvpJ62H7woJvW-55" edge="1">
          <mxGeometry relative="1" as="geometry" />
        </mxCell>
        <mxCell id="mMcJlgv2Vi7-TSQJx2wT-17" value="Motoman Move Group Node" style="rounded=1;whiteSpace=wrap;html=1;fillColor=#e1d5e7;strokeColor=#9673a6;fontColor=#0d0d0d;verticalAlign=middle;" parent="1" vertex="1">
          <mxGeometry x="1480" y="480" width="200" height="40" as="geometry" />
        </mxCell>
        <mxCell id="mMcJlgv2Vi7-TSQJx2wT-18" value="" style="group" parent="1" vertex="1" connectable="0">
          <mxGeometry x="1480" y="560" width="200" height="80" as="geometry" />
        </mxCell>
        <mxCell id="mMcJlgv2Vi7-TSQJx2wT-19" value="Motoman Robot Commander" style="rounded=1;whiteSpace=wrap;html=1;fillColor=#e1d5e7;strokeColor=#9673a6;fontColor=#0d0d0d;verticalAlign=top;" parent="mMcJlgv2Vi7-TSQJx2wT-18" vertex="1">
          <mxGeometry width="200" height="80" as="geometry" />
        </mxCell>
        <mxCell id="mMcJlgv2Vi7-TSQJx2wT-20" value="MoveGroupInterface" style="rounded=0;whiteSpace=wrap;html=1;fillColor=#fff2cc;strokeColor=#d6b656;fontColor=#0d0d0d;" parent="mMcJlgv2Vi7-TSQJx2wT-18" vertex="1">
          <mxGeometry x="30" y="30" width="140" height="40" as="geometry" />
        </mxCell>
        <mxCell id="mMcJlgv2Vi7-TSQJx2wT-21" value="/motoman/move_to_named_pose&lt;div&gt;MoveToNamedPose.srv&lt;/div&gt;" style="rounded=1;whiteSpace=wrap;html=1;fillColor=#d5e8d4;strokeColor=#82b366;fontColor=#0d0d0d;" parent="1" vertex="1">
          <mxGeometry x="1760" y="520" width="200" height="40" as="geometry" />
        </mxCell>
        <mxCell id="mMcJlgv2Vi7-TSQJx2wT-22" style="edgeStyle=orthogonalEdgeStyle;rounded=0;orthogonalLoop=1;jettySize=auto;html=1;exitX=0.5;exitY=0;exitDx=0;exitDy=0;entryX=0.5;entryY=1;entryDx=0;entryDy=0;" parent="1" source="mMcJlgv2Vi7-TSQJx2wT-19" target="mMcJlgv2Vi7-TSQJx2wT-17" edge="1">
          <mxGeometry relative="1" as="geometry" />
        </mxCell>
        <mxCell id="mMcJlgv2Vi7-TSQJx2wT-23" style="edgeStyle=orthogonalEdgeStyle;rounded=0;orthogonalLoop=1;jettySize=auto;html=1;exitX=1;exitY=0.25;exitDx=0;exitDy=0;entryX=0;entryY=0.5;entryDx=0;entryDy=0;" parent="1" source="mMcJlgv2Vi7-TSQJx2wT-19" target="mMcJlgv2Vi7-TSQJx2wT-21" edge="1">
          <mxGeometry relative="1" as="geometry" />
        </mxCell>
        <mxCell id="mMcJlgv2Vi7-TSQJx2wT-24" style="edgeStyle=orthogonalEdgeStyle;rounded=0;orthogonalLoop=1;jettySize=auto;html=1;exitX=1;exitY=0.5;exitDx=0;exitDy=0;entryX=0;entryY=0.5;entryDx=0;entryDy=0;" parent="1" source="mMcJlgv2Vi7-TSQJx2wT-19" target="mMcJlgv2Vi7-TSQJx2wT-15" edge="1">
          <mxGeometry relative="1" as="geometry" />
        </mxCell>
        <mxCell id="mMcJlgv2Vi7-TSQJx2wT-25" style="edgeStyle=orthogonalEdgeStyle;rounded=0;orthogonalLoop=1;jettySize=auto;html=1;exitX=1;exitY=0.75;exitDx=0;exitDy=0;entryX=0;entryY=0.5;entryDx=0;entryDy=0;" parent="1" source="mMcJlgv2Vi7-TSQJx2wT-19" target="mMcJlgv2Vi7-TSQJx2wT-16" edge="1">
          <mxGeometry relative="1" as="geometry" />
        </mxCell>
        <mxCell id="mMcJlgv2Vi7-TSQJx2wT-28" style="edgeStyle=orthogonalEdgeStyle;rounded=0;orthogonalLoop=1;jettySize=auto;html=1;exitX=0;exitY=0.5;exitDx=0;exitDy=0;entryX=1;entryY=0.5;entryDx=0;entryDy=0;" parent="1" source="mMcJlgv2Vi7-TSQJx2wT-19" target="3qK1JiZfvpJ62H7woJvW-63" edge="1">
          <mxGeometry relative="1" as="geometry" />
        </mxCell>
        <mxCell id="8bdz1LaCaH4GujnHHJCm-16" style="edgeStyle=orthogonalEdgeStyle;rounded=0;orthogonalLoop=1;jettySize=auto;html=1;exitX=0;exitY=0.5;exitDx=0;exitDy=0;entryX=1;entryY=0.5;entryDx=0;entryDy=0;" parent="1" source="y9fsMtqRyiIpAI7D023--1" target="8bdz1LaCaH4GujnHHJCm-2" edge="1">
          <mxGeometry relative="1" as="geometry" />
        </mxCell>
        <mxCell id="8bdz1LaCaH4GujnHHJCm-18" style="edgeStyle=orthogonalEdgeStyle;rounded=0;orthogonalLoop=1;jettySize=auto;html=1;exitX=0.25;exitY=0;exitDx=0;exitDy=0;entryX=1;entryY=0.5;entryDx=0;entryDy=0;" parent="1" source="y9fsMtqRyiIpAI7D023--1" target="8bdz1LaCaH4GujnHHJCm-3" edge="1">
          <mxGeometry relative="1" as="geometry" />
        </mxCell>
        <mxCell id="8bdz1LaCaH4GujnHHJCm-19" style="edgeStyle=orthogonalEdgeStyle;rounded=0;orthogonalLoop=1;jettySize=auto;html=1;exitX=0.5;exitY=0;exitDx=0;exitDy=0;entryX=1;entryY=0.5;entryDx=0;entryDy=0;" parent="1" source="y9fsMtqRyiIpAI7D023--1" target="8bdz1LaCaH4GujnHHJCm-1" edge="1">
          <mxGeometry relative="1" as="geometry" />
        </mxCell>
        <mxCell id="8bdz1LaCaH4GujnHHJCm-20" style="edgeStyle=orthogonalEdgeStyle;rounded=0;orthogonalLoop=1;jettySize=auto;html=1;exitX=0.25;exitY=1;exitDx=0;exitDy=0;entryX=1;entryY=0.5;entryDx=0;entryDy=0;" parent="1" source="y9fsMtqRyiIpAI7D023--1" target="8bdz1LaCaH4GujnHHJCm-8" edge="1">
          <mxGeometry relative="1" as="geometry" />
        </mxCell>
        <mxCell id="8bdz1LaCaH4GujnHHJCm-21" style="edgeStyle=orthogonalEdgeStyle;rounded=0;orthogonalLoop=1;jettySize=auto;html=1;exitX=0.5;exitY=1;exitDx=0;exitDy=0;entryX=1;entryY=0.5;entryDx=0;entryDy=0;" parent="1" source="y9fsMtqRyiIpAI7D023--1" target="8bdz1LaCaH4GujnHHJCm-5" edge="1">
          <mxGeometry relative="1" as="geometry" />
        </mxCell>
        <mxCell id="y9fsMtqRyiIpAI7D023--1" value="Base Vision Node" style="rounded=1;whiteSpace=wrap;html=1;fillColor=#e1d5e7;strokeColor=#9673a6;fontColor=#0d0d0d;" parent="1" vertex="1">
          <mxGeometry x="1520" y="960" width="160" height="40" as="geometry" />
        </mxCell>
        <mxCell id="8bdz1LaCaH4GujnHHJCm-1" value="/ns/trays_info&lt;div&gt;Trays.msg&lt;/div&gt;" style="rounded=1;whiteSpace=wrap;html=1;fillColor=#dae8fc;strokeColor=#6c8ebf;fontColor=#0d0d0d;" parent="1" vertex="1">
          <mxGeometry x="1280" y="840" width="200" height="40" as="geometry" />
        </mxCell>
        <mxCell id="8bdz1LaCaH4GujnHHJCm-2" value="/ns/locate_trays&lt;div&gt;LocateTrays.srv&lt;/div&gt;" style="rounded=1;whiteSpace=wrap;html=1;fillColor=#d5e8d4;strokeColor=#82b366;fontColor=#0d0d0d;" parent="1" vertex="1">
          <mxGeometry x="1280" y="960" width="200" height="40" as="geometry" />
        </mxCell>
        <mxCell id="8bdz1LaCaH4GujnHHJCm-3" value="/ns/raw_image&lt;div&gt;Image.msg&lt;/div&gt;" style="rounded=1;whiteSpace=wrap;html=1;fillColor=#dae8fc;strokeColor=#6c8ebf;fontColor=#0d0d0d;" parent="1" vertex="1">
          <mxGeometry x="1280" y="900" width="200" height="40" as="geometry" />
        </mxCell>
        <mxCell id="8bdz1LaCaH4GujnHHJCm-5" value="/ns/calibrate_maps&lt;div&gt;Trigger.srv&lt;/div&gt;" style="rounded=1;whiteSpace=wrap;html=1;fillColor=#d5e8d4;strokeColor=#82b366;fontColor=#0d0d0d;" parent="1" vertex="1">
          <mxGeometry x="1280" y="1080" width="200" height="40" as="geometry" />
        </mxCell>
        <mxCell id="8bdz1LaCaH4GujnHHJCm-8" value="/ns/update_slots&lt;div&gt;Trigger.srv&lt;/div&gt;" style="rounded=1;whiteSpace=wrap;html=1;fillColor=#d5e8d4;strokeColor=#82b366;fontColor=#0d0d0d;" parent="1" vertex="1">
          <mxGeometry x="1280" y="1020" width="200" height="40" as="geometry" />
        </mxCell>
        <mxCell id="8bdz1LaCaH4GujnHHJCm-27" style="edgeStyle=orthogonalEdgeStyle;rounded=0;orthogonalLoop=1;jettySize=auto;html=1;exitX=0;exitY=0.5;exitDx=0;exitDy=0;entryX=1;entryY=0.5;entryDx=0;entryDy=0;dashed=1;endArrow=none;endFill=0;" parent="1" source="8bdz1LaCaH4GujnHHJCm-14" target="y9fsMtqRyiIpAI7D023--1" edge="1">
          <mxGeometry relative="1" as="geometry" />
        </mxCell>
        <mxCell id="8bdz1LaCaH4GujnHHJCm-14" value="Fanuc Table Vision&lt;div&gt;/fanuc/table_vision/**&lt;/div&gt;" style="rounded=1;whiteSpace=wrap;html=1;fillColor=#e1d5e7;strokeColor=#9673a6;fontColor=#0d0d0d;" parent="1" vertex="1">
          <mxGeometry x="1760" y="840" width="200" height="40" as="geometry" />
        </mxCell>
        <mxCell id="8bdz1LaCaH4GujnHHJCm-29" style="edgeStyle=orthogonalEdgeStyle;rounded=0;orthogonalLoop=1;jettySize=auto;html=1;exitX=0;exitY=0.5;exitDx=0;exitDy=0;entryX=1;entryY=0.5;entryDx=0;entryDy=0;dashed=1;endArrow=none;endFill=0;" parent="1" source="8bdz1LaCaH4GujnHHJCm-22" target="y9fsMtqRyiIpAI7D023--1" edge="1">
          <mxGeometry relative="1" as="geometry" />
        </mxCell>
        <mxCell id="8bdz1LaCaH4GujnHHJCm-22" value="Fanuc Conveyor Vision&lt;div&gt;/fanuc/conveyor_vision/**&lt;/div&gt;" style="rounded=1;whiteSpace=wrap;html=1;fillColor=#e1d5e7;strokeColor=#9673a6;fontColor=#0d0d0d;" parent="1" vertex="1">
          <mxGeometry x="1760" y="900" width="200" height="40" as="geometry" />
        </mxCell>
        <mxCell id="8bdz1LaCaH4GujnHHJCm-30" style="edgeStyle=orthogonalEdgeStyle;rounded=0;orthogonalLoop=1;jettySize=auto;html=1;exitX=0;exitY=0.5;exitDx=0;exitDy=0;entryX=1;entryY=0.5;entryDx=0;entryDy=0;dashed=1;endArrow=none;endFill=0;" parent="1" source="8bdz1LaCaH4GujnHHJCm-23" target="y9fsMtqRyiIpAI7D023--1" edge="1">
          <mxGeometry relative="1" as="geometry" />
        </mxCell>
        <mxCell id="8bdz1LaCaH4GujnHHJCm-23" value="Motoman Table Vision&lt;div&gt;/motoman/table_vision/**&lt;/div&gt;" style="rounded=1;whiteSpace=wrap;html=1;fillColor=#e1d5e7;strokeColor=#9673a6;fontColor=#0d0d0d;" parent="1" vertex="1">
          <mxGeometry x="1760" y="960" width="200" height="40" as="geometry" />
        </mxCell>
        <mxCell id="8bdz1LaCaH4GujnHHJCm-32" style="edgeStyle=orthogonalEdgeStyle;rounded=0;orthogonalLoop=1;jettySize=auto;html=1;exitX=0;exitY=0.5;exitDx=0;exitDy=0;entryX=1;entryY=0.5;entryDx=0;entryDy=0;dashed=1;endArrow=none;endFill=0;" parent="1" source="8bdz1LaCaH4GujnHHJCm-24" target="y9fsMtqRyiIpAI7D023--1" edge="1">
          <mxGeometry relative="1" as="geometry" />
        </mxCell>
        <mxCell id="8bdz1LaCaH4GujnHHJCm-24" value="Motoman Conveyor Vision&lt;div&gt;/motoman/conveyor_vision/**&lt;/div&gt;" style="rounded=1;whiteSpace=wrap;html=1;fillColor=#e1d5e7;strokeColor=#9673a6;fontColor=#0d0d0d;" parent="1" vertex="1">
          <mxGeometry x="1760" y="1020" width="200" height="40" as="geometry" />
        </mxCell>
        <mxCell id="8bdz1LaCaH4GujnHHJCm-33" style="edgeStyle=orthogonalEdgeStyle;rounded=0;orthogonalLoop=1;jettySize=auto;html=1;exitX=0;exitY=0.5;exitDx=0;exitDy=0;entryX=1;entryY=0.5;entryDx=0;entryDy=0;dashed=1;endArrow=none;endFill=0;" parent="1" source="8bdz1LaCaH4GujnHHJCm-25" target="y9fsMtqRyiIpAI7D023--1" edge="1">
          <mxGeometry relative="1" as="geometry" />
        </mxCell>
        <mxCell id="8bdz1LaCaH4GujnHHJCm-25" value="Teach Table Vision&lt;div&gt;/teach/table_vision/**&lt;/div&gt;" style="rounded=1;whiteSpace=wrap;html=1;fillColor=#e1d5e7;strokeColor=#9673a6;fontColor=#0d0d0d;" parent="1" vertex="1">
          <mxGeometry x="1760" y="1080" width="200" height="40" as="geometry" />
        </mxCell>
      </root>
    </mxGraphModel>
  </diagram>
</mxfile>
